<svg width="24" height="22" viewBox="0 0 24 22" fill="none" xmlns="http://www.w3.org/2000/svg">
<rect width="23.6604" height="22" rx="9.13208" fill="#7C3AED"/>
<path d="M7.03896 9.56608H16.8971M7.4679 4.98071V7.33896M10.2382 4.98071V7.33896M13.6997 4.98071V7.33896M16.4701 4.98071V7.33896M5.93195 6.33872H18.006C18.1481 6.33872 18.2843 6.39516 18.3848 6.49562C18.4853 6.59609 18.5417 6.73235 18.5417 6.87443V15.5057C18.5417 15.7968 18.4261 16.076 18.2202 16.2819C18.0144 16.4877 17.7352 16.6034 17.4441 16.6034H6.49388C6.20277 16.6034 5.92358 16.4877 5.71773 16.2819C5.51188 16.076 5.39624 15.7968 5.39624 15.5057V6.87443C5.39624 6.73235 5.45268 6.59609 5.55315 6.49562C5.65361 6.39516 5.78987 6.33872 5.93195 6.33872Z" stroke="white" stroke-width="0.936554" stroke-linecap="round" stroke-linejoin="round"/>
</svg>
